<?xml version="1.0" encoding="UTF-8" standalone="no"?>
<!-- Created with Inkscape (http://www.inkscape.org/) -->

<svg
   xmlns:dc="http://purl.org/dc/elements/1.1/"
   xmlns:cc="http://creativecommons.org/ns#"
   xmlns:rdf="http://www.w3.org/1999/02/22-rdf-syntax-ns#"
   xmlns:svg="http://www.w3.org/2000/svg"
   xmlns="http://www.w3.org/2000/svg"
   xmlns:sodipodi="http://sodipodi.sourceforge.net/DTD/sodipodi-0.dtd"
   xmlns:inkscape="http://www.inkscape.org/namespaces/inkscape"
   width="210mm"
   height="297mm"
   viewBox="0 0 210 297"
   version="1.1"
   id="svg8"
   inkscape:version="0.92.4 (5da689c313, 2019-01-14)"
   sodipodi:docname="stafinder_logo.svg">
  <defs
     id="defs2" />
  <sodipodi:namedview
     id="base"
     pagecolor="#ffffff"
     bordercolor="#666666"
     borderopacity="1.0"
     inkscape:pageopacity="0.0"
     inkscape:pageshadow="2"
     inkscape:zoom="6.52"
     inkscape:cx="161.89116"
     inkscape:cy="170.82268"
     inkscape:document-units="mm"
     inkscape:current-layer="layer2"
     showgrid="false"
     inkscape:window-width="3840"
     inkscape:window-height="2131"
     inkscape:window-x="0"
     inkscape:window-y="0"
     inkscape:window-maximized="1"
     showguides="true" />
  <metadata
     id="metadata5">
    <rdf:RDF>
      <cc:Work
         rdf:about="">
        <dc:format>image/svg+xml</dc:format>
        <dc:type
           rdf:resource="http://purl.org/dc/dcmitype/StillImage" />
        <dc:title></dc:title>
      </cc:Work>
    </rdf:RDF>
  </metadata>
  <g
     inkscape:label="Layer 1"
     inkscape:groupmode="layer"
     id="layer1"
     style="display:inline" />
  <g
     inkscape:groupmode="layer"
     id="layer2"
     inkscape:label="Layer 2"
     style="display:inline">
    <path
       style="display:inline;fill:#000000;stroke-width:0.99999994"
       d="m 39.20266,295.08362 c 0.417384,-6.24133 0.581422,-10.3079 0.421391,-10.44632 -0.100744,-0.0871 -0.876004,-0.29691 -1.72279,-0.46615 -1.401426,-0.28008 -2.131782,-0.73918 -2.131782,-1.34003 0,-0.12456 0.18653,-0.14942 0.414513,-0.0553 0.611587,0.25264 3.461448,0.86333 3.558086,0.76243 0.04562,-0.0477 0.192548,-1.94975 0.326332,-4.22677 0.256722,-4.36932 0.224532,-4.55378 -0.796292,-4.56331 -0.22309,-0.002 -0.995868,-0.23434 -1.71727,-0.51613 -0.993579,-0.38809 -1.31164,-0.63294 -1.31164,-1.00974 0,-0.30224 0.116173,-0.44652 0.296081,-0.36772 1.499406,0.65683 3.566973,1.1771 3.710981,0.93383 0.09079,-0.15336 0.305656,-3.14461 0.477475,-6.64722 0.171818,-3.50261 0.381982,-7.14734 0.467045,-8.09938 l 0.15465,-1.731 0.491015,1.33568 0.491008,1.33568 0.798592,-1.80879 0.798599,-1.80879 0.155613,0.84405 c 0.08559,0.46421 0.277914,3.68162 0.427387,7.14979 0.375228,8.70639 0.466856,9.64532 0.940672,9.63888 0.211151,-0.003 1.130032,-0.28057 2.04196,-0.61713 0.911928,-0.33656 1.684697,-0.6124 1.717267,-0.613 0.03256,-4.9e-4 0.0592,0.2094 0.0592,0.46664 0,0.51957 -0.960163,0.99596 -3.033948,1.5053 l -1.25747,0.30885 0.128744,1.8883 c 0.07082,1.03857 0.193602,2.97327 0.272897,4.29933 0.07929,1.32606 0.180539,2.41103 0.224995,2.41103 0.04448,0 0.849833,-0.16887 1.789693,-0.37528 0.939867,-0.20641 1.74513,-0.33741 1.789472,-0.29111 0.04433,0.0463 -0.128054,0.318 -0.383076,0.60379 -0.309101,0.34637 -0.90162,0.57673 -1.777115,0.69094 -0.722387,0.0942 -1.358951,0.24823 -1.41461,0.34224 -0.09545,0.16123 0.173458,6.26576 0.46105,10.46633 L 46.202596,297 H 42.638543 39.07449 Z m -1.593143,-0.32379 c -0.664363,-0.90933 -1.191066,-2.0879 -1.457729,-3.26184 -0.153839,-0.67725 -0.149289,-0.68003 1.113629,-0.68003 h 1.268094 l -0.09353,2.0401 c -0.134764,2.93913 -0.1115,2.88586 -0.830461,1.90177 z m 9.213472,-0.13409 c -0.08389,-0.53021 -0.153694,-1.60386 -0.155128,-2.3859 l -0.003,-1.42188 h 1.210684 1.210685 l -0.162438,0.92731 c -0.151522,0.86502 -0.828026,2.28129 -1.612128,3.37504 -0.313845,0.43777 -0.346832,0.40441 -0.489072,-0.49457 z m -25.679908,-4.09277 c -1.465601,-1.6152 -2.664728,-3.03893 -2.664728,-3.16385 0,-0.12491 0.207976,-0.29602 0.462167,-0.38025 0.88227,-0.29233 3.92808,-2.51858 5.441586,-3.97736 3.685192,-3.55194 7.065675,-10.01015 7.725069,-14.75828 0.08972,-0.64603 0.243052,-1.1746 0.340744,-1.1746 0.09769,0 0.468282,0.67616 0.823529,1.50258 0.355248,0.82643 0.707562,1.43822 0.782921,1.35954 0.07536,-0.0787 0.323574,-0.5601 0.551592,-1.06983 l 0.414575,-0.92679 0.01918,1.65127 c 0.06353,5.47097 -1.898054,12.05732 -5.074531,17.03866 -1.453598,2.27953 -4.746511,6.07911 -5.721607,6.60197 -0.36616,0.19635 -0.861387,-0.2354 -3.100491,-2.70306 z m 38.036676,1.29529 c -4.05847,-3.92297 -7.16859,-9.56984 -8.46314,-15.36606 -0.448946,-2.01012 -1.108956,-8.334 -0.893297,-8.55915 0.05594,-0.0584 0.300943,0.39944 0.544417,1.01746 0.24345,0.61803 0.50298,1.1241 0.57672,1.12461 0.0737,4.9e-4 0.37704,-0.61111 0.67403,-1.35916 0.29699,-0.74804 0.6205,-1.41205 0.71893,-1.47556 0.0984,-0.0635 0.45843,0.99783 0.80001,2.35852 1.24433,4.95687 3.31509,8.92267 6.43055,12.31544 2.01677,2.1963 4.02215,3.82082 5.86881,4.7542 0.61881,0.31277 1.12297,0.62996 1.12035,0.70487 -0.003,0.0749 -1.25503,1.50955 -2.78316,3.18811 l -2.7784,3.05191 z m -27.081681,-2.27541 c -2.955682,-0.38041 -2.850557,-0.28121 -1.813696,-1.7114 0.494117,-0.68157 1.41679,-2.32149 2.050382,-3.64429 0.633594,-1.3228 1.170695,-2.43553 1.193559,-2.47273 0.02285,-0.0372 0.21315,6.9e-4 0.422858,0.0851 0.379043,0.15185 0.865174,0.99619 3.228983,5.60826 l 1.235717,2.41103 -2.329876,-0.0313 c -1.281431,-0.0172 -3.075999,-0.12731 -3.987927,-0.24467 z m 14.567181,0.13364 c 0,-0.46723 3.90596,-7.57097 4.27678,-7.77816 0.40236,-0.22482 0.57542,0.006 1.61914,2.16521 0.64273,1.32932 1.54901,2.97006 2.01394,3.64611 0.60044,0.87306 0.76083,1.27787 0.55365,1.39729 -0.80547,0.4643 -8.46351,0.97965 -8.46351,0.56955 z m -28.160769,-5.444 c -0.665754,-0.6249 -1.210459,-1.21373 -1.210459,-1.30852 0,-0.0948 0.772771,-0.60153 1.717269,-1.12609 0.944498,-0.52456 1.957095,-1.17941 2.250215,-1.45521 0.621048,-0.58434 0.701856,-1.53108 0.149571,-1.75233 -0.411761,-0.16496 -0.593128,-0.0802 -3.608402,1.68614 -1.088133,0.63743 -2.058076,1.12568 -2.155425,1.08499 -0.455453,-0.19035 -3.097293,-2.88306 -2.927681,-2.98405 0.10585,-0.063 1.098463,-0.42309 2.205805,-0.80015 2.825505,-0.96212 3.753222,-1.49163 3.934508,-2.24572 0.26007,-1.08178 -0.222235,-1.26372 -1.624821,-0.61293 -0.684089,0.31741 -2.256392,0.95892 -3.49401,1.42558 l -2.250216,0.84847 -1.480404,-1.62593 c -0.8142216,-0.89427 -1.4804046,-1.70883 -1.4804046,-1.81013 0,-0.10132 1.3590116,-0.50129 3.0200256,-0.88882 3.676448,-0.85777 5.27024,-1.51564 5.27024,-2.17539 0,-0.78321 -0.679883,-0.81564 -2.697541,-0.12869 -2.415644,0.82247 -6.2884956,1.43458 -6.7427396,1.0657 -0.352139,-0.28596 -2.102981,-2.9122 -2.301446,-3.45215 -0.09934,-0.27028 0.515944,-0.37118 3.084011,-0.50573 4.8433056,-0.25375 6.9586596,-0.81873 6.6106246,-1.76559 -0.206681,-0.5623 -1.005759,-0.67221 -2.699652,-0.37131 -2.6480886,0.47039 -5.6401096,0.71292 -6.9945836,0.56698 l -1.305749,-0.14069 -0.964249,-2.07978 c -0.530337,-1.14387 -0.925655,-2.11621 -0.878485,-2.16076 0.04717,-0.0445 1.631307,0.0691 3.520302,0.2525 4.155731,0.40353 10.4341436,0.4482 12.0529756,0.0857 1.317843,-0.29505 1.92866,-0.81683 1.491052,-1.27369 -0.199575,-0.20836 -1.169889,-0.21126 -3.767954,-0.0113 -3.549222,0.2732 -7.2975426,0.12921 -11.8422636,-0.45489 l -2.184622,-0.28078 -0.49664603,-1.38579 c -0.273156,-0.76219 -0.560475,-1.72252 -0.638487,-2.13405 -0.118424,-0.62472 -0.08637,-0.70121 0.194189,-0.46332 1.08687303,0.92159 4.70196803,1.32867 13.60045463,1.53147 8.501957,0.19377 8.694407,0.22806 9.319649,1.66069 0.402263,0.92171 0.34159,1.75194 -0.34532,4.72533 -0.87679,3.79532 -0.753396,5.75363 0.517606,8.21448 0.511561,0.99047 1.58716,2.66915 2.390214,3.73039 l 1.460101,1.92952 -1.01692,1.58256 c -1.144836,1.78162 -4.067598,4.7412 -5.5131,5.58253 l -0.95677,0.55688 -1.210462,-1.13619 z m 45.013619,0.1315 c -1.703,-1.18724 -4.46044,-4.19878 -5.22853,-5.71034 l -0.54924,-1.08088 1.60595,-2.22283 c 0.88328,-1.22256 1.96212,-2.99864 2.39743,-3.94685 0.68123,-1.48386 0.79144,-1.98334 0.79117,-3.58563 -1.9e-4,-1.1391 -0.23001,-2.85145 -0.59216,-4.41203 -0.78567,-3.3856 -0.76728,-3.81005 0.21353,-4.92738 l 0.8054,-0.9175 8.07507,-0.17814 c 8.109913,-0.1789 11.324193,-0.49616 13.165803,-1.29949 L 85,255.74507 l -0.33865,1.19052 c -0.38736,1.36177 -1.00726,2.97179 -1.14421,2.97179 -0.0509,0 -1.56843,0.1767 -3.37214,0.39267 -2.92992,0.35083 -5.919523,0.41349 -12.635643,0.26485 -1.43092,-0.0317 -1.77649,0.0322 -1.77649,0.32829 0,0.20217 0.31977,0.536 0.71059,0.74184 0.58107,0.30605 1.76839,0.36971 6.51378,0.34931 3.191763,-0.0137 6.709173,-0.14358 7.816483,-0.28857 1.10731,-0.14499 2.0547,-0.22036 2.10532,-0.16752 0.0506,0.0528 -0.33636,1.02816 -0.85996,2.16737 l -0.95199,2.07129 -1.14057,0.16321 c -1.31229,0.18778 -3.30067,0.0362 -6.471183,-0.49335 -2.53078,-0.4227 -3.34047,-0.32023 -3.34047,0.42277 0,0.33759 0.26395,0.61761 0.80434,0.85333 0.86735,0.37835 5.024363,0.85979 7.426713,0.86012 0.81422,1.2e-4 1.48041,0.0691 1.48041,0.15333 0,0.31675 -1.65529,2.98231 -2.13122,3.43197 -0.4645,0.43886 -0.64221,0.44945 -2.794603,0.16673 -1.26421,-0.16607 -3.16303,-0.59528 -4.2196,-0.95381 -1.98649,-0.67409 -2.78861,-0.64183 -2.65611,0.10684 0.12302,0.69508 1.76935,1.39335 5.12188,2.17236 1.71968,0.3996 3.126683,0.81272 3.126683,0.91806 0,0.25311 -2.405573,3.06338 -2.773943,3.24062 -0.32716,0.1574 -2.68462,-0.65536 -5.24474,-1.80818 -1.83049,-0.82427 -2.40337,-0.83355 -2.40337,-0.0389 0,0.80536 1.28872,1.6744 3.72227,2.51007 1.27478,0.43774 2.39899,0.87242 2.49824,0.96591 0.0993,0.0935 -0.51926,0.81535 -1.37447,1.60408 l -1.55494,1.43408 -1.46791,-0.81128 c -0.80735,-0.44621 -1.84096,-1.05093 -2.29693,-1.34382 -1.20493,-0.77398 -1.6772,-0.91127 -2.04337,-0.59401 -0.87381,0.7571 -0.16808,1.57719 2.84216,3.30275 l 1.62782,0.93312 -1.03565,0.96186 c -1.68862,1.5683 -1.65241,1.56329 -3.25042,0.44924 z M 30.008571,268.37518 c -0.922482,-1.31196 -1.840098,-3.28594 -2.252729,-4.84612 -0.229718,-0.86856 -0.213327,-0.9266 0.241431,-0.85486 0.370589,0.0584 0.595303,0.44341 0.93473,1.60129 0.245769,0.83839 0.822885,2.10771 1.282481,2.82071 0.459595,0.713 0.871553,1.36239 0.915458,1.44308 0.0439,0.0807 0.0066,0.35701 -0.0829,0.61404 -0.138774,0.39854 -0.291662,0.28397 -1.038469,-0.77814 z m 24.117556,0.88079 c -0.10151,-0.268 0.11078,-0.82813 0.58872,-1.55335 0.97644,-1.48165 1.78781,-3.35875 2.24286,-5.18889 0.3987,-1.60349 0.47812,-5.14463 0.1486,-6.62604 -0.24183,-1.0873 -0.0154,-1.35766 0.57077,-0.68148 0.63246,0.72961 0.76286,4.29777 0.25372,6.9427 -0.46437,2.41239 -1.63067,5.11759 -2.81834,6.53707 -0.68858,0.82299 -0.85426,0.91874 -0.98633,0.56999 z m -20.59169,-2.63678 c -0.452144,-1.04678 -1.533562,-2.388 -2.460401,-3.05149 l -0.550311,-0.39394 0.966371,-0.95316 c 0.531503,-0.52424 1.319381,-1.64946 1.750842,-2.5005 l 0.784472,-1.54733 0.537842,1.24241 c 0.295813,0.68332 1.071986,1.85256 1.724828,2.59829 0.652843,0.74574 1.082554,1.35589 0.954915,1.35589 -0.443823,0 -2.169141,1.96618 -2.722132,3.10215 l -0.556465,1.14311 z m 16.84265,-0.19913 c -0.579035,-1.19294 -2.272461,-3.0507 -2.780843,-3.0507 -0.138581,0 0.26744,-0.52857 0.902274,-1.1746 0.634826,-0.64603 1.451877,-1.81023 1.815669,-2.5871 l 0.66143,-1.41251 0.70057,1.46364 c 0.38531,0.80501 1.18198,1.95913 1.77036,2.56472 0.96441,0.99261 1.02324,1.1165 0.59722,1.25767 -0.66472,0.22025 -2.1339,1.98141 -2.64276,3.16798 l -0.42813,0.99835 z m -23.49826,-4.76949 c -1.206862,-0.51124 -1.521214,-2.24839 -0.583938,-3.2269 1.100514,-1.14893 3.079241,-0.22498 3.079241,1.43782 0,0.7482 -0.674425,1.77688 -1.16495,1.77688 -0.119622,0 -0.359447,0.0487 -0.532946,0.10818 -0.173501,0.0595 -0.532332,0.0163 -0.797407,-0.096 z m 0.367022,-4.89607 c 0.0019,-0.10201 0.155134,-0.85314 0.340462,-1.66918 1.408737,-6.20294 6.340293,-11.01265 12.517856,-12.20855 0.963663,-0.18655 1.126176,-0.16269 1.065894,0.15653 -0.08889,0.47068 -0.469428,0.66862 -1.966042,1.02267 -0.65138,0.1541 -2.081207,0.73801 -3.177393,1.29758 -3.628265,1.85213 -6.597192,5.71963 -7.518153,9.7936 -0.319332,1.4126 -0.496569,1.79281 -0.835704,1.79281 -0.236732,0 -0.428846,-0.0835 -0.42692,-0.18546 z m 14.459919,-1.21496 c -0.616678,-1.48643 -2.74597,-4.08658 -3.82249,-4.66776 l -0.65229,-0.35215 1.598039,-1.67371 c 1.18062,-1.23652 1.840463,-2.20268 2.526136,-3.69883 0.510454,-1.11381 0.981393,-2.02804 1.046532,-2.03162 0.06512,-0.004 0.491486,0.8521 0.947457,1.90149 0.626811,1.44259 1.241554,2.34715 2.520292,3.70847 l 1.691278,1.8005 -0.658469,0.35549 c -1.190791,0.64287 -2.806274,2.58149 -3.601321,4.32166 -0.429444,0.93998 -0.834106,1.71341 -0.899237,1.71874 -0.06512,0.005 -0.378309,-0.61669 -0.695927,-1.38228 z m -22.516822,0.65856 c 0,-0.32971 0.157911,-0.49456 0.47373,-0.49456 0.315819,0 0.473729,0.16485 0.473729,0.49456 0,0.32972 -0.15791,0.49458 -0.473729,0.49458 -0.315819,0 -0.47373,-0.16486 -0.47373,-0.49458 z m 45.994501,-0.30657 c 0.11233,-0.82191 0.90472,-0.89416 0.90472,-0.0825 0,0.47861 -0.12151,0.63634 -0.4902,0.63634 -0.37232,0 -0.472,-0.13319 -0.41452,-0.55386 z m -56.1759716,-0.9833 c 0.0021,-0.58263 0.20677,-2.0634 0.454953,-3.2906 2.0974096,-10.37114 8.6031166,-19.13948 17.7979656,-23.98796 2.136679,-1.12668 5.866669,-2.45214 8.27858,-2.94182 1.103844,-0.22411 2.233935,-0.4578 2.51131,-0.51932 0.493672,-0.10949 0.496966,-0.0897 0.155879,0.93632 -0.396318,1.19218 -0.26498,2.92311 0.288737,3.80536 0.194605,0.31007 0.353816,0.60781 0.353816,0.66165 0,0.0538 -0.506295,0.16248 -1.125103,0.2414 -2.060724,0.26283 -5.359485,1.39797 -7.994185,2.75088 -8.347346,4.28634 -13.837388,11.96439 -15.361844,21.4842 l -0.284856,1.77884 -2.539482,0.0702 -2.5394836,0.0702 0.0037,-1.05932 z m 61.9664816,-1.2289 c -0.2294,-1.24931 -0.77263,-3.28015 -1.20717,-4.51294 -0.43453,-1.2328 -0.961,-2.74221 -1.16992,-3.35424 -0.57396,-1.68136 -4.51307,-6.73972 -7.10183,-9.11969 -3.61763,-3.32588 -8.66811,-5.92049 -13.133431,-6.74712 -0.867852,-0.16066 -1.605965,-0.31144 -1.640242,-0.33507 -0.03431,-0.0236 0.10756,-0.46745 0.315197,-0.98625 0.379242,-0.94759 0.388601,-3.26334 0.01662,-4.10475 -0.156122,-0.35313 -0.02277,-0.37282 1.198631,-0.17703 4.969475,0.79662 10.332235,3.10418 14.757155,6.34992 2.1312,1.56327 6.27274,5.95835 7.7637,8.239 2.58926,3.96065 4.613653,9.11936 5.380713,13.71153 0.59826,3.58157 0.78033,3.30814 -2.202713,3.30814 h -2.55958 z m -10.80741,1.61698 c -0.68883,-0.2344 -2.13178,-0.90537 -2.13178,-0.99129 0,-0.0478 0.21317,-0.50222 0.47373,-1.00974 1.19554,-2.32877 -0.11316,-5.68921 -2.40172,-6.16706 -0.80321,-0.16771 -0.82138,-0.29952 -0.21294,-1.54463 0.66396,-1.35872 1.82478,-2.48104 3.291,-3.18182 2.47713,-1.18395 5.75978,-0.42469 7.50715,1.73636 1.67809,2.07537 2.0532,5.17493 0.91489,7.55972 -0.73714,1.54433 -2.13239,2.85132 -3.60187,3.37405 -1.02689,0.36529 -3.07292,0.48491 -3.83846,0.22441 z M 19.26061,254.91296 c -0.286273,-0.1444 -0.692907,-0.64186 -0.903634,-1.10546 -1.143322,-2.51537 2.21238,-4.54847 3.844463,-2.32924 0.1587,0.21581 0.291936,0.85541 0.296081,1.42134 0.01272,1.73763 -1.687249,2.795 -3.23691,2.01336 z m 34.662787,-0.45282 c -1.29376,-0.40476 -2.28399,-1.79548 -2.28399,-3.20772 0,-1.55239 1.22497,-3.06108 2.72373,-3.35462 1.09552,-0.21456 2.81653,0.6146 3.29951,1.58967 0.90165,1.8203 0.17265,4.11892 -1.53214,4.83105 -1.04757,0.43759 -1.22473,0.44896 -2.20711,0.14162 z m -32.365803,-4.68812 c -0.306894,-0.20419 -0.275336,-0.39461 0.231649,-1.39777 0.819038,-1.62061 2.811293,-4.54038 3.098061,-4.54038 0.597875,0 0.411514,0.79881 -0.46977,2.01358 -0.528594,0.72862 -1.287985,1.96462 -1.687535,2.74666 -0.399551,0.78203 -0.746851,1.42018 -0.771781,1.4181 -0.02493,-0.002 -0.205211,-0.11017 -0.400624,-0.24019 z m 30.430543,-2.70924 c -1.34771,-1.38587 -4.619089,-2.89051 -7.274136,-3.34569 -0.53784,-0.0922 -0.98484,-0.34582 -1.138776,-0.64612 -0.242726,-0.47349 -0.20038,-0.48751 1.0038,-0.33237 2.691958,0.3468 6.063392,1.8722 8.126282,3.6767 0.59736,0.52253 0.65397,0.66132 0.35529,0.87092 -0.48239,0.33855 -0.53701,0.32716 -1.07246,-0.22344 z m -25.541693,-3.12969 c -1.963916,-1.39322 -2.140217,-4.49559 -0.351708,-6.18905 2.541819,-2.40674 6.760633,-0.0436 6.251391,3.50166 -0.409113,2.84818 -3.614712,4.30837 -5.899683,2.68739 z m 29.930273,-2.96525 c -1.75433,-1.48301 -5.58941,-3.41246 -8.053411,-4.05168 -4.243699,-1.10093 -8.776356,-0.91687 -12.761527,0.51822 -2.382286,0.85787 -2.90454,0.94818 -3.044943,0.52652 -0.244045,-0.73289 5.050254,-2.37356 8.592891,-2.66288 5.754924,-0.47001 12.26498,1.7369 16.8066,5.69743 0.59407,0.51807 0.65234,0.65904 0.3553,0.85977 -0.48332,0.3266 -0.42847,0.35229 -1.89491,-0.88738 z m -15.54104,-10.95836 c -2.625385,-1.67134 -2.517423,-5.4697 0.196365,-6.90829 0.91252,-0.48373 1.316127,-0.56125 2.200996,-0.42271 1.237796,0.19378 2.497521,1.19991 2.95917,2.36349 0.40473,1.02009 0.186559,2.98575 -0.43207,3.89275 -1.015868,1.48942 -3.441518,2.01882 -4.924461,1.07476 z"
       id="path880"
       inkscape:connector-curvature="0" />
  </g>
</svg>
